# xmcd
#
# Track frame offsets:
#	150
#	23172
#	44952
#	73872
#	95535
#	119572
#	141707
#	170020
#	185412
#	202770
#	224932
#	248222
#
# Disc length: 3646
#
# Revision: 1
# Processed by: cddbd v1.5.1PL0 Copyright (c) Steve Scherf et al.
# Submitted via: CDex 1.50
# Normalized: r0:TRMNUM
#
DISCID=ca0e3c0c
DTITLE=Engelbert Wrobel - Wrobel's Swing Society - Live
DYEAR=2004
DGENRE=Jazz
TTITLE0=Between The Devil And The Blue Sea
TTITLE1=Frenesi
TTITLE2=Guilty
TTITLE3=Besame Mucho
TTITLE4=My Honey's Lovin'Arms
TTITLE5=Harlem Nocturne
TTITLE6=Benny's Bugle
TTITLE7=Swampy River
TTITLE8=Adios Mariquita Linda
TTITLE9=Hallelujah
TTITLE10=What'll I Do
TTITLE11=Limehouse Blues
EXTD=YEAR: 2004
EXTT0=
EXTT1=
EXTT2=
EXTT3=
EXTT4=
EXTT5=
EXTT6=
EXTT7=
EXTT8=
EXTT9=
EXTT10=
EXTT11=
PLAYORDER=
